<?xml version="1.0" encoding="UTF-8"?>
<svg xmlns="http://www.w3.org/2000/svg" viewBox="0 0 341.12 313.7">
  <defs>
    <style>
      .cls-1 {
        fill: #e2af7c;
      }

      .cls-2 {
        fill: #fdfbf7;
      }

      .cls-3 {
        fill: #d9ab86;
      }

      .cls-4 {
        fill: #f29997;
      }

      .cls-5 {
        fill: #281b11;
      }

      .cls-6 {
        fill: #c27647;
      }

      .cls-7 {
        fill: #fdfbf6;
      }

      .cls-8 {
        fill: #efaa9f;
      }

      .cls-9 {
        fill: #d5a672;
      }

      .cls-10 {
        fill: #fff9de;
      }

      .cls-11 {
        fill: #fbf9e5;
      }
    </style>
  </defs>
  <g id="Calque_4">
    <path class="cls-10" d="M84.78,168.23c-2.78-7.22-3.08-4.65-3.22-12.86s1.56-9.12.33-12.8.14-.9-3.26-6.9-4.29-4.89-4.63-9.89.33-5.78,0-10.78-.53-7.33-.1-11-4.31-6.33,1.67-5.89,8.64.56,12.75,1.67,4.47-.11,8.79,3.11,5.54,4.11,9.1,7.56,3.22,5.33,6.56,3.89,4.67-3.05,9.11-3.3,6.89-.7,12.22-.14,6.66.11,11.33,1.44,8.67.56,11.23-1.89,6.22-8,12-8.94,7.44-2.17,11.78-2.06,5.33-1.33,6.67,2.06,1.56,5.79,1.56,9.53.33,4.3-.67,8.52-1.22,6.78-2,9.67-1.22,6-3.33,9.22-2.44,3.56-3.89,6-1.09,8.46-1,11.38.78,4.4-.33,8.29-2.22,7.44-4,9.56-2.78,3.22-5.11,5.78-3.07,4.33-5.76,5.78-1.25,2-2.58,2.67-.55.78-4.22,2.67-3,2.44-6.56,3.22-2.5,1-7.92,1.33-5.63-.22-9.52,0-11.56-1.22-15.23-2.11-2.22-.13-4.56-1.18-7.11-2.5-7.56-3-5.38-2.71-6.41-3.82-4.59-4.44-5.37-5.22-3.13-3.11-4.17-4.33-3.71-7.22-3.71-7.22Z"/>
    <path class="cls-10" d="M189.71,139.01c8.07,0,10.4-2.33,18.74,0s8.12,2.81,19.33,5.79,9.02,2.68,18.51,8.61,8.83,2.55,14.83,11.75,11.33,7.94,15,18.06,4.33,9.12,5.33,20.12,0,16.33,0,23.33-5.3,16.8-5.91,23.8-2.09,14.2-9.76,20.53-9.24,9-14.95,12.33-22.38,12.67-26.05,14.33-12.67,5.67-17,6-15.14,4-18.07,4.33-11.47,4.8-15.37,3.56-15.89-1.9-18.89-1.9-39.65-3.27-45.29-6.04-39.12-29.62-40.58-32.62-6.8-11.2-6.8-15.43,2.47-17.19,5.07-19.88,13.6-8.94,16.6-10.82,9.69-3.54,12.68-3.2,6.99,1.74,9.99,3.2,5.5,3.46,9.42,5.46,12.36,3.37,12.97,5.35,5.11,4.65,7.2,5.31,3.35,1,7.22,3,4.7,5.17,9.12,2.25,11.04-3.92,11.73-6.92,2.89-4.63,1.02-9.33-10.15-19.88-13.63-22.96-3.89.24-6.71-3.7-.78.72-5.77-3.77-1.51-4.9,1.63-5.9,5.89,2.09,12.29-1.85,13.85-7.49,16.18-10.49,5.52-10.13,6.59-13.67,3.41-8.61,3.41-12.3-4.89-4.91-1-10.91,10.93-5.44,10.93-5.44Z"/>
    <path class="cls-4" d="M167.82,91.01c3.41-8.89,5.11-9.33,3.48-17.11s-6.33-8.6-2.65-12.86,11.46-19.59,11.02-26.25-3.11-17.78-9.56-20.22-11.78-2.82-13.33-6.33,1.74-3.45,7.98-3.23,32.02,1.33,48.69,8.67,77.21,39.46,87.11,75.78,22.44,48.97,16.89,87.38-27.8,68.74-33.56,75.29-3.65-7.25-3.11-10.22c2.22-12.22,2.22-13.11,2.22-25.11s-1.03-17.9-4.18-26.51-7.15-21.27-11.82-24.27-6.67-5.29-9.56-8.03-2.67-4.52.67-5.63,5.56-.45,10.44-1.89,7.56,1.03,7.11-5.65.67-11.02-3.33-15.4-7.33-6.38-11.78-8.61-10.67-5.33-16-6.22-17.56-4.16-21.78-3.52-10.44,1.52-15.33,2.86-8.67,3.11-11.56,5.11-5.22,2.52-5.28,3.09-.64-2.2-.9-5.76-.18-7.56,0-10.67,1.62-3.56-.99-6.22-.34-2.32-7.47-1.38-5.25-.23-8.91,1.6-6.43,1.83-9.5,2.76-2.22.24-1.69-1.48,2.75-1.97,4.64-5.07,2.04-4.88,2.04-4.88Z"/>
    <path class="cls-9" d="M82.12,291.45c-12.44-6.89-29.33-18.44-39.78-31.33s-20.83-23.75-28.44-41.3S.78,149.89,3.23,140.78s6-33.21,11.78-42.72c5.78-9.51,13.87-23.96,15.56-27.06s2.2-.25,3.6-5.33-4.26-1.53-3.15-10.88c1.11-9.35.89-14.01,5.11-19.79s6.22-9.33,10.44-10.67-.44-2.89,11.78-6.44,17.33-6.67,23.78-9.33,11.46-6.89,19.84-6.33,11.49-.56,17.71,1.44-.25,0,13.21,0,16.41,2.55,20.16,3.56,8.02,4.43,11.35,5.46,5.87,2.16,9.95,8.32,4.31,7.79,4.01,14.89-2.9,12.89-6.01,17.11-3.56,9.33-2.89,11.56,3.26,11.01,1.85,16.22-3.3,8.64-6.91,13.1-1.46,3.68-5.53,7.07-6.05,9.02-1.18,6.28,9.51-5.07,13.63-6.15,13.81-6.45,14.81-3.01,3.29,4.95,3.44,11.61c.08,3.6-1.69,7.34-2.35,9.65-.57,1.97-.33,2.92,2.51,1.9,6.18-2.22,12.43-6.51,20.44-8s10.18-2.98,15.59-2.19,7.6,1.26,13.21,2.39,7.16,3.58,15.16,6.69,8.89,4.5,13.56,6.89,4.22,6.81,6.67,10.96,2.22,2.84,0,6.83-2.89,5.54-8.44,6.43-8.67,3.33-13.56,1.33-3.11,1.48-9.11-2.71-5.11-4.4-12.67-5.96-8.89-1.33-16.22-2.89-5.11-1.11-12.22-1.56-6.59.62-10.96-.47-6.04.91-6.54-2.2,1.38-5.79,1.68-8.71c.58-5.83,1.58-11.74,1.26-14.63s1.65-5.11,0-8.44-.82-3.45-5.46-4.06-13.12,2.95-15.1,3.61-7.32,3.11-10.32,5.89-2.11,5.22-6.11,4.11-10.22-3.11-12.67-3.56-3.5-.73-7.53-.36-4.71,1.25-8.92,1.47-1.97.44-6.21,1-15.79-8.55-19.34-10.11-7.57-4.99-12.78-4.94-10.38.05-10.58,4.94-.79,16.62,1.47,22.78,8.39,19.54,8.25,20.6.47,22.53,2.34,23.99,12.76,15.22,17.36,17.03,20.33,6.38,28.57,10.32,26.24,13.12,29.46,21.08,6.89,17.08,2.83,20.19-3.32,8.06-9.8,7.25-11.76-.14-16.34-5.25-13.38-9.56-19.42-12.67-4.71-3.33-13.27-5.78-14.56-2.67-19.22.22-7.11,2.89-11.33,6.67-2.75,6-5.6,10-3.73,4.77-4.4,10.44.44,14.89,3.11,18.67,7.75,6.66,11.75,12.67,3.81,10.22,3.81,10.22Z"/>
  </g>
  <g id="Calque_5">
    <path class="cls-5" d="M148.78,67.67c-3.33,2-5.78,4.23-4.89,7.12s-1.35,2.88,2.35,4.22,6.37,3.67,9.2,1.67,4.83-1.77,5-5.88,3.65-4.62-1.59-6.12-3.34-1-6.71-1h-3.37Z"/>
    <path class="cls-5" d="M125.81,164.17h5.98c.66,0,2.62.97,3.48.99s1.68.83,1.43,2.51-.41,4.4-2.75,4.04-4.83,1.03-6.17,0-2.34-1.37-3.25-2.87-2.25-2-1.33-2.83,2.61-1.83,2.61-1.83Z"/>
    <path class="cls-8" d="M87.45,132.78c1.67-2.17.37-2.33,2.68-4.5s1.72-3.5,4.1-5.17,6.24.33,2.89-3.17-5.41-5-8.79-7.33-6.56-2.57-8.05-3.1-2.37,5.61-1.65,11.1c.46,3.53,1.82,9.19,5.82,15,2.27,3.3,3-2.83,3-2.83Z"/>
    <path class="cls-8" d="M164.76,118.64c1.35,1.67-.57,1.33,2.23,4.5s7.79,9.17,8.79,11.83,1,8.96,1.83,5.06,1.5-7.26,2.17-10.08,1.62-5.15,2.23-10.32-.26-7.64-.4-9.3-2.8-.58-3.64-.21c-2.58,1.11-1.95,1.01-5.16,3.35s-8.06,5.17-8.06,5.17Z"/>
    <path class="cls-11" d="M30.28,48.55c.67,6.45,1.38,11.94,3.33,15.08,1.96,3.14,4,6.54,5.33,8.04,1.33,1.5,1.33,2.43.83-2.03s-1.67-4.63-1.17-9.97c.5-5.33.18-12.71,10.33-20.83,8.33-6.67,10.33-9,16.83-12.67s11.83-5.33,13.83-8.83,4-9,2.33-8.83-1,.83-5,2.67-7,2.67-10.5,4.17-5.55,1.83-10.02,4.33-9.14,6.5-11.14,8.17-6.67,5.67-8.83,7.83-6.17,12.88-6.17,12.88Z"/>
    <path class="cls-7" d="M131.32,106.13c-3.1.13-3.92.74-12.44-1.73-3.34-.97-11.16-2.14-11.83-8.83-.48-4.79,1.58-9.65,4-12.33,2.95-3.27,10.49-13.24,12.91-20.04s3.8-12.87,2.61-21.25-2.19-13.99-6-17.82-8.83-8.27-14.19-9.39c-6.14-1.28-14.01-1.41-19.17-1.33s-4.36.67-10.18-.67,4.51-6.17,9.51-7.17,13.45-2.67,18.22-2.67,10.78.83,15.94,1.67,10.63.83,15.31,5,8.17,7.5,10.18,11.83,8.01,13,8.51,15.17,3.35,13.12,3.83,14.5.91,4.5,3.95,8.33,7.38,7.83,8.88,11.5,2.91,6.67,2.2,9.33,1.63,3.9-1.87,7.61-8.73,7.13-10.95,6.67-3.55-1.29-4.22-3.79-2.5-4.83-1.67-6.33,1.67-3.29,3.67-4.9,4.6-2.87,5.05-5.15-.29-4.06-2.83-5.76-6.38-4.14-9.72-3.17-5.32,1.3-6.57,2.97-.33,2.58.18,5.95,3.89,6.61,4.56,6.66,3.57,1.22,3.7,1.89.31,2.33.89,5-2.25,7.67-2.25,7.67c0,0,3.08-2.34,3.39-1.96s3.54,3.06,4.68,3.26,3.86,3.37,1.14,4.2-3.74,1.83-7.39,2.83-3.83,1.5-7.16,1.67-6.2.42-10.18.54-4.7.02-4.7.02Z"/>
    <path class="cls-11" d="M14.28,124.76c5-15.33,22.08-40.32,26.92-45.33,1.87-1.94-5.39-8.15-7.18-8.81s-3.6,3.34-6,6.33-5.07,9.32-7.9,14.15-5,9.67-5.83,12.83-5.83,13.17-6.83,18-1.33,11.83-1.33,11.83c-.17,5.17.27,6.99,0,9.5-2.08,19.5,1.67,2.67,3.5-2.83"/>
    <path class="cls-11" d="M138.34,9.23c3.67,2,27.22,13,30.33,20.22s6.26,10.67,2.63,18.67-4.85,11.11-5.52,12.92,11.56-8.03,12.33-10.92,1.11-10.22,1.22-11.89,1.33-7.78,0-9.44-2.11-2.78-4.11-5.56-4.22-6.44-6.56-7.56-3.56-2-7.44-3.56-4.22-2.33-9.56-3.89-6.78-2.22-10.22-2.56-11-3.21-12.22-2.77,9.11,6.32,9.11,6.32Z"/>
    <path class="cls-11" d="M193.01,120.89c-3.22,1.44-4.33,5.67-4.67,7s-.33,2.56,0,2.89,6.89-2.56,10.78-3.89,12.33-5,22.78-5.44,25,3.56,32.56,7.56,13.78,8.33,19,11.56,5.44-.11,2.11-5.06-.67-6.5-7.89-10.61-13-6.78-17.89-8.11-7-2.44-14.33-3.78-14.67-1-19,0-9.22,1.78-12.89,3-9.86,3.53-10.44,4.33-.11.56-.11.56Z"/>
    <path class="cls-11" d="M53.45,198.19c2.83,2.82,6.72,5.93,9.33,6.37,8.06,1.37,13.78-1,24.22-1.78s27.88-3.33,35.88.78,13.89,7.56,20.12,13.22,14.34,11.6,15.44,15.78c1.33,5.03.92,8.78.83,9.69s4.75-2,5.58-4.5.33-8,0-10-.5-3.75-3.25-8-1.83-4.83-7.08-9.08-7.75-6.68-11.08-8.71-1.08-1.45-6.75-3.54-5.67-2.17-9.92-3.42-1.58-2.17-17.5-2.75-16.08-1-24.5-.25-8.42.58-15.17,1.67-16.17,4.52-16.17,4.52Z"/>
    <circle class="cls-2" cx="201.95" cy="61.68" r="5.17"/>
    <circle class="cls-2" cx="226.76" cy="73.15" r="6.9"/>
    <path class="cls-3" d="M87.01,251.23c6.03,2.88,29.44,15.11,42.5,21.33s29.32,11,55.65,11.78,45.41-9.33,56.3-18.22,22.22-19.78,26.67-30.42,9.13-25.05,9.34-36.87,4.66-.49,4.66,1.74-.22,22.22,0,26-4.32,27.76-6.01,29.62-13.55,19.05-19.77,23.49-19.19,12.22-23.15,14.22-27.07,9.33-30.4,10.22-16.64,4.44-24.43,4.89-14.23.67-22.68.67-9.78,0-16.22-.67-2.44-.44-8.89-1.11-7.66-2.22-14.22-3.33-3.63-1.19-11.37-3.48-5.97-5.38-11.2-7.93-6.46-3.14-8.77-4.42-2.3-.57-5.74-3.28-5.14-6.58-6.8-7.11-.11-1.07-1.45-3.09-3.56-5.35-4.44-7.13-.89-3.11-1.78-5.11-1.11-3.11-1.33-5.56.67-7.11,0-7.78.37-3.11-.04-4.44-.19-2.8-.19-2.8c0,0,7.49-7.34,7.01-4.64-.82,4.62,12.52,11.41,16.78,13.44Z"/>
    <path class="cls-3" d="M175.56,193.53c-.6,6.84-5,14.83,1.67,24.82s19.72,16.57,27.11,17.32c9.96,1.01,17.69-.75,24.86-4.08s16.94-11.15,21.63-19.69,5.55-10.73,6.72-10.85,2.12,3.82,1.67,5.67,1.34,2.52.11,5.85-2.78,13.78-5.22,17.11-10.44,14.89-17.33,18.44-12.67,7.13-14.67,8.79-2.44,1.88-8,2.99-7,.16-12.16,1.07-10.39.89-17.33-1.33-7.24-1.5-13.32-2.73-3.95-.34-9.57-2.12-7.63-3.11-7.19-4.64,2.35-4.64,4.74-6.55,4.63-2.62,5.11-3.56,1.95-4.13,2.84-9.69-.81-10.2.59-11.99,2.89-9.79,3.48-12.68,4.26-12.14,4.26-12.14Z"/>
    <path class="cls-3" d="M172.12,177.75c-1.22,2.58-1.05,1.11-2.91,5.57s-.9,1.46-2.22,7.46-1.14,8.59-.56,12.18-.34,9.15-.44,10.26-.8,3.79-1.23,4.33,2.73,4.22,1.02,4.67-4.28-.78-4.64-1.67,1.63,0-1.14-2.22-2.33-2.33-3.88-3.56-2.33-2.22-4.11-4.11-1.22-1.67-3-3.44-1.09-2.26-3.32-3.77-4.97-1.23-6.45-4.08-2.11-3.16-2.11-3.16c0,0,1-1.99,3.22-2.55s1.89-.56,4.89-.78,11.56-3.46,12.22-4.06,2.89-1.6,4.56-2.94,1.4-1.99,2.76-3.05,1.88-1.5,3.06-2.72,4.29-2.36,4.29-2.36Z"/>
  </g>
  <g id="Calque_6">
    <path class="cls-1" d="M150.45,55.67c-5.33-2.5-9.17-3-11.5-5.83s-4.5-4.5-5.17-8.17-.33-6,.67-9.67,1.5-5.5,2-5.5,5.5,2.5,7.83,4.5,7.83,6.5,9.17,10.08,2.5,13.42,2.5,13.42l-5.5,1.17Z"/>
    <path class="cls-6" d="M122.95,4.34c6.83,2.83,19.33,5.83,29.5,12.5s17.5,9.83,20.67,18.5,2,16.67,1,20.33-3.17,3.5-4.83,3.33-1.83.97-2.83.07-5.83-3.4-5.83-3.4c0,0-1.17-1.17-1.67-2.5s-1-2.83-1-4.5-.5-2.67-.83-5.33-1.33-5-1.17-5.67-1.33-3.5-2.17-4.67-2.83-4-3.67-5-.17-.67-1.83-2.5-1.33-1.67-2.67-3-.17-.33-2.33-2.33-15.5-11-16.17-11.5-4.17-4.33-4.17-4.33Z"/>
    <path class="cls-6" d="M78.63,38.67c2.69,14.5,6.82,19,6.32,29.17s-4.52,21.33-8.68,24.17-9,7.83-16.25,7-10.74-.33-15.08-7.5-5.01-15.55-6-20.67,5.17,7.33,5.17,7.33c0,0,5.53,6.17,6.68,7.17s2.65,2.67,4.32,3.17,5.1,1.5,6.8.67,4.17-2.33,5.93-4.33,3.61-4.5,4.6-6.33,2.09-5.83,3.13-8,2.42-8.17,2.73-10.33,1.14-7.83,1.14-9.17-.82-12.33-.82-12.33Z"/>
    <path class="cls-6" d="M6.95,125.01c-1.5,14.67,8,44.5,10.67,53.08s11.33,36.58,17.17,44.08,9.67,11.33,10.33,11.67,6.76-4.46,16.8-10.83c13.66-8.67,21.53-11.5,34.2-11s22.28,4.05,35.67,12.83,18.16,13.5,18.16,13.5l-2.48,8.63s-12.52-8.63-13.35-9.47-14.52-6.5-16.84-7.5-7.7-2.45-14.01-4.39-4.81-2.61-10.65-2.11-11.3,3-13.98,4.83-11.35,7.17-12.52,10.33-7.01,16.52.83,29.83,2,14.83-1.67,12.5-9.97-6.67-14.48-12-10.85-12.17-15.52-17.33-5.67-6.33-8.17-10.17-3.5-5.33-5.17-9.5-2.33-5.5-4.67-10.33-3.33-5.5-4.17-8.33-7.83-40.9-8.33-43.62-1-4.88-1-10.55-1.17-8.05,0-12.78,1.33-6.56,1.83-11.22,1.33-10.17,1.33-10.17Z"/>
    <path class="cls-6" d="M184.62,131.37c13.67-.86,30.67-3.19,40.33-.86s23,6.83,29,10.33,9.11,4.02,8.76,6.83-1.59,5.94-1.89,5.77,1.48-.31-2.04,0-5.33-2.06-8.67-3,.17-1.49-8.83-4.05-9.33-3.06-15.67-4.22-8.83-1.67-13.17-1.83-7.67-.17-11.83-.33-3.5-.5-6.33-.17-2.08.43-6,.67-6.16-.02-6.1-1.68,2.43-7.46,2.43-7.46Z"/>
  </g>
  <g id="Calque_2">
    <path class="cls-5" d="M57.23,93.88c-2.7,0-4.23-2.06-5.59-3.9-.78-1.05-1.75-2.36-3.17-3.85-.81-.85-1.88-1.89-3.12-3.1-5.38-5.25-12.74-12.43-15.1-19.32-3.38-9.84-2.93-18.74,1.32-26.43,6.24-11.27,18.16-17.93,29-22.96l.11-.05c1.75-.73,10.63-4.4,13.06-4.88,1.99-.39,3.35-1.4,5.23-2.8C82.81,3.75,88.05-.16,101.48,0c20.06.23,26.33,2.63,37.51,10.74,9.9,7.19,20.42,23.39,20.42,39.26,0,3.14,1.03,4.08,1.04,4.09-.12-.1-.2-.14-.2-.14l-1.55,2.62c-.86,1.46-3,1.46-3.83-.02s-1.46-3.52-1.46-6.55c0-14.74-10.49-28.99-17.94-34.4-10.29-7.47-15.37-9.38-34.05-9.59-11.41-.13-15.36,2.81-18.84,5.4-2.13,1.58-4.33,3.22-7.65,3.88-1.23.24-6.98,2.48-11.86,4.51-9.95,4.62-20.83,10.65-26.23,20.4-3.4,6.14-3.7,13.4-.9,21.57,1.9,5.54,8.95,12.42,13.62,16.98,1.28,1.25,2.39,2.33,3.28,3.26,1.67,1.76,2.81,3.29,3.64,4.41,0,0,0,0,.01.01.65.88,1.84,1.15,2.81.64,1.92-1,5.09-3.22,9.33-8.08,4.74-5.44,7.33-16.99,6.6-29.41-.14-2.44-.42-4.62-.67-6.54-.81-6.26-1.46-11.34,3.94-17.29,1.1-1.22,3.04-1.17,4.13.05h0c1.09,1.22,1.09,3.07.01,4.3-3.23,3.68-2.86,6.52-2.13,12.17.26,2.01.55,4.3.71,6.95.65,11.07-1.13,25.73-8.07,33.7-5.36,6.16-10.77,10.12-14.84,10.85-.37.07-.73.1-1.07.1Z"/>
    <path class="cls-5" d="M159.93,313.7C72.2,313.7.57,244.54,0,159.03c-.22-33.92,10.53-66.16,31.14-93.35.62-.81,1.79-.96,2.59-.34l1.84,1.43c.79.62.94,1.75.33,2.56-19.78,26.12-30.12,57.08-29.9,89.66.55,82.22,69.5,148.71,153.92,148.71.36,0,.71,0,1.07,0,84.91-.56,153.55-68.19,153-150.75-.27-39.98-16.52-77.46-45.78-105.55-29.28-28.11-68.08-43.41-109.21-43.16h-9.72c-1.01,0-1.83-.82-1.83-1.84v-2.33c0-1.01.82-1.83,1.84-1.83h9.7c42.66-.28,82.97,15.64,113.39,44.84,30.43,29.22,47.35,68.22,47.62,109.84.57,85.87-70.74,156.21-158.96,156.79-.37,0-.74,0-1.11,0Z"/>
    <path class="cls-5" d="M167.23,65.55c-.99.75-2.43.1-2.48-1.14-.06-1.42.46-3.4,2.67-5.78,3.31-3.57,9.21-15.52,8.55-23.55-1-11.98-5.12-16.23-11.45-19.2-1.74-.82-3.51-1.7-5.22-2.55-6.17-3.08-12.54-6.26-17.97-6.5-8.27-.36-12.61.37-14.81,1.07-.74.23-1.54-.1-1.87-.79l-1.28-2.64c-.41-.84.02-1.84.91-2.15,3.85-1.32,9.66-1.82,17.32-1.49,6.7.29,13.66,3.76,20.39,7.12,1.68.84,3.41,1.7,5.09,2.49,9.51,4.47,13.83,11.46,14.88,24.13.86,10.36-6.13,23.81-10.12,28.12-.96,1.04-1.07,1.56-1.07,1.57,0,0,.08-.45-.4-1.08l-3.11,2.36Z"/>
    <path class="cls-5" d="M102.47,61.04c-4.74,0-6.56-1.83-7.65-2.9l-1.23-1.22c-1.08-1.07-1.09-2.82-.02-3.91l.33-.33c1.08-1.09,2.83-1.1,3.92-.02l.18.18c1.62,1.55,2.52,2.37,5.05,2.17,2.45-.19,4.64-1.88,6.66-5.16.75-1.21,2.3-1.65,3.58-1.01l.42.21c1.47.73,1.97,2.57,1.1,3.97-3.09,4.96-6.88,7.64-11.3,7.98-.36.03-.71.04-1.04.04Z"/>
    <path class="cls-5" d="M107.45,102.28c4.5.89,16.57,2.8,25.56,2.74,1.21,0,2.46-.02,3.77-.02,13.32,0,20-5.28,20.28-5.5,12.55-10.13,13.38-25.9,8.45-32.75-4.47-6.21-8.82-8.12-14.33-10.54-1.21-.53-2.43-1.07-3.69-1.67-5.93-2.83-8.13-5.15-9.53-8.01-.73-1.48-.03-3.26,1.52-3.82l.47-.17c1.29-.47,2.76.08,3.37,1.31.92,1.87,2.33,3.17,6.75,5.27,1.2.57,2.37,1.09,3.52,1.59,5.59,2.45,11.36,4.99,16.79,12.53,7.15,9.93,4.99,29.18-9.55,40.92-.87.7-8.9,6.83-24.05,6.83-1.3,0-2.54,0-3.73.02-1.13,0-2.23.02-3.3.02-7.7,0-14.06-.39-23.82-3.87-.84-.3-1.88-.52-2.99-.75-1.58-.33-3.36-.71-5.26-1.44-1.4-.54-2.55-.69-3.76-.85-.04,0-.09-.01-.13-.02-1.69-.22-2.77-1.92-2.26-3.55l.16-.49c.4-1.27,1.21-1.61,2.53-1.44,0,0,0,0,0,0"/>
    <path class="cls-5" d="M135.2,101.51c-8.26,0-11.94-2.01-17.6-6.51-1.22-.97-1.42-2.76-.43-3.97l.23-.28c.99-1.21,2.76-1.38,3.98-.41,4.77,3.83,7.23,5.17,13.83,5.17,8.44,0,14.39-3.2,16.35-8.78-.26-.53-1.53-1.74-3.53-2.67-6.87-3.21-8.45-7.63-8.56-10.77-.29-7.77,7.16-8.8,11.62-9.42,6.03-.83,10.53.57,12.34,3.86,1.8,3.26,2.54,9.41-1.44,12.88-1.44,1.25-2.6,2.04-3.45,2.61-.43.29-.95.64-1.09.79h0s-.59.36-.57,1.21v.1c.2.74.1,1.31.29,2.44.32.83.91,1.6,1.93,2.83.71.85,1.44,1.73,4.12-.19.61-.43,1.93-1.82,2.8-3.05.5-.7,1.41-.95,2.21-.63l1.66.67c1.38.56,1.86,2.26,1,3.48-1.37,1.94-3.18,3.71-4.18,4.42-6.51,4.65-10.71.95-12.21-.85-.11-.13-.21-.25-.31-.38-3.08,3.72-8.72,7.46-18.97,7.46ZM154.27,69.64c-.7,0-1.5.05-2.38.17-5.63.78-6.51,1.46-6.44,3.25.1,2.67,2.83,4.5,5.1,5.56.8.37,1.6.81,2.35,1.3.06.04.13.03.17-.02.58-.61,1.29-1.13,2.1-1.67.8-.54,1.7-1.15,2.86-2.15,1.23-1.07.93-4,.13-5.46-.23-.42-1.55-.98-3.89-.98Z"/>
    <path class="cls-5" d="M133.74,197.83c-11.63,0-23.06-3.61-28.8-6.2-7.38-3.32-17-10.51-21.11-17.83-3.99-7.12-5.59-14.11-5.04-22.01.12-1.69.27-3.04.4-4.13.39-3.42.44-3.86-1.41-6.69-.52-.8-1.07-1.54-1.65-2.33-2.76-3.76-5.89-8.03-6.34-18.52-.75-17.41.59-21.98,3.15-23.99,3.64-2.85,15.67-.02,23.05,2.9,5.26,2.08,9.3,5.78,12.24,8.48.84.77,1.88,1.73,2.69,2.36.42.32.97.37,1.45.15,5.99-2.79,11.68-3.38,20.87-3.53,6.24-.12,11.33,2.07,14.67,3.5.79.34,1.72.74,2.33.94.13-.12.28-.25.44-.4,3.32-2.98,11.09-9.96,19.92-12.28,15.01-3.95,17.76-1.82,18.67-1.13.96.74,1.51,1.85,1.51,3.03,0,.41.04,1.04.09,1.89.2,3.35.57,9.57-.1,18.34-.98,12.89-7.19,21.76-8.42,23.41-.69.92-.98,3.51-.86,7.68,0,.24.02.48.02.72.01.33.02.6.02.8h0c.05,3.81-.28,7.57-.97,10.05-2.59,9.27-5.67,14.77-11.35,20.27l-.15.15c-5.56,5.39-11.31,10.97-27.09,13.69-2.7.47-5.47.67-8.22.67ZM77.6,100.95c-.63,0-1.18.43-1.33,1.04-.49,1.97-.97,6.67-.49,17.89.37,8.67,2.6,11.71,5.18,15.23.6.82,1.22,1.66,1.83,2.59,2.92,4.46,2.83,6.49,2.36,10.66-.12,1.08-.26,2.31-.37,3.86-.47,6.77.85,12.52,4.29,18.66,3.43,6.12,12.01,12.45,18.33,15.29,6.04,2.72,20.83,7.28,33.55,5.08,13.95-2.41,18.58-6.89,23.93-12.08l.15-.15c4.89-4.75,7.45-9.35,9.75-17.58.51-1.83.8-5.05.76-8.43h0c0-.21-.01-.52-.02-.89-.01-.3-.02-.59-.03-.89-.09-1.91-.3-3.8-.64-5.46-1.23-6.03-3.88-10.16-5.63-12.89l-.38-.6c-.65-1.01-2.22-2.63-3.61-4.06-3.22-3.31-4.77-4.99-4.77-7.05,0-1.45.54-3.22,6.95-7.34,2.48-1.6,3.78-1.99,6.2-3.14,1.57-.75,7.61-2.34,8.22-.72l.54,1.42c.27.7-.06,1.48-.74,1.78-3.68,1.59-10.76,5.45-13.32,7.31-.68.5-.77,1.48-.19,2.09.48.51.99,1.03,1.41,1.46,1.67,1.71,3.4,3.49,4.38,5.03l.37.58c.96,1.5,2.25,3.51,3.48,6.08.5,1.04,1.98,1.08,2.51.05,1.85-3.58,4.03-9.09,4.54-15.83.63-8.36.28-14.33.09-17.53,0-.16-.02-.31-.03-.46-1.78-.05-5.77.29-12.73,2.12-7.43,1.96-14.45,8.25-17.44,10.94-.58.52-1.03.92-1.32,1.16-2.19,1.77-4.8.65-7.82-.65-3.05-1.31-7.2-3.09-12.21-3.02-9.08.15-14.05.69-19.51,3.5-3.35,1.72-6.27-.95-9.65-4.05-2.75-2.52-6.17-5.65-10.4-7.33-7.24-2.87-13.43-3.7-16.18-3.68ZM76.27,101.08h0Z"/>
    <path class="cls-5" d="M85.14,148.01c.02-.09.03-.16.03-.21l-2.56-.24c-1.84-.18-3-2.05-2.33-3.77.55-1.4,1.36-3.36,2.53-6.18l.86-2.07c2.99-7.23,6.47-10.43,9.1-12.85.16-.15.33-.3.5-.46-2.66-2.24-10.43-9.18-14.34-11.18-.74-.38-.85-1.12-.19-1.62l1.39-.78c.68-.52,1.59-.65,2.38-.33,5.26,2.11,17.97,9.24,19.18,12.17.38.92.34,1.93-.11,2.77-.66,1.24-2.92,2.15-4.26,3.38-2.38,2.19-5.63,5.18-8.12,11.19l-.86,2.08c-1.27,3.07-3.02,7.26-3.22,8.11Z"/>
    <path class="cls-5" d="M152.02,248.81c-1.11,0-2.19-.23-3.2-.8-3.48-1.95-3.48-6.43-3.48-8.11,0-.61.06-1.21.12-1.86.22-2.33.42-4.55-1.86-6.7-.95-.9-1.15-2.34-.46-3.46l.38-.61c.84-1.35,2.7-1.63,3.89-.58,4.75,4.21,4.29,9.11,4.03,11.91-.05.5-.09.97-.09,1.3,0,2.27.34,2.79.44,2.9,0,0,.06.01.2.01.5,0,2-.2,5.17-2.14,2.77-1.7,4.32-4.02,4.62-6.92.55-5.43-3.24-12.54-10.15-19l-.78-.73c-9.8-9.19-18.27-17.13-44.05-18.92-19.61-1.37-44.68,2.3-52.47,4.51-1.33.38-2.74-.15-3.5-1.3l-.44-.67c-.82-1.25-.23-2.94,1.19-3.4,9.38-3.06,36.61-6.44,55.63-5.12,27.91,1.93,37.54,10.96,47.74,20.52l.77.72c8.39,7.85,12.77,16.59,12.02,23.99-.49,4.79-3.06,8.74-7.45,11.43-2.29,1.4-5.36,3.02-8.27,3.02Z"/>
    <path class="cls-5" d="M55,197.08l-1.81-3.25s0,0,0,0c8.61-4.79,8.63-16.54,8.66-26.91v-.19c.02-7.95-3.97-14.33-6.04-16.17l-4.69-4.76c-.41-.41-.43-1.07-.06-1.51h0c1.9-2.25,5.06-2.29,7.09-.17,6.46,6.75,9.71,14.34,9.7,22.62v.19c-.02,10.71-.05,23.88-9.68,30.83-1.05.76-2.54.45-3.17-.68Z"/>
    <path class="cls-5" d="M264.5,154.32c-1.83,0-3.31-.47-4.47-1.42-2.57-2.11-2.34-5.54-2.2-7.58.01-.19.03-.42.04-.62.02-.3-.03-.6-.13-.88-.47-1.3-1.22-2.78-3.71-4.55-1.24-.88-1.61-2.55-.87-3.88l.04-.07c.85-1.53,2.83-1.99,4.25-.98,4.54,3.22,5.53,6.2,6.17,8.09.37,1.1.29,2.17.21,3.31,0,0,0,.01,0,.02-.1,1.47,1.24,2.64,2.68,2.3.19-.05.4-.1.62-.16,2.8-.76,4.57-2.02,5.29-3.75,1.05-2.55.11-6.6-2.66-11.41-4.42-7.69-26.3-17.84-44.58-18.27-14-.32-17.77,1.74-26.87,6.77-2.48,1.37-5.3,2.92-8.78,4.69l-1.73-3.4c-.55-1.08-.12-2.39.95-2.95,2.53-1.32,4.7-2.51,6.65-3.59,9.51-5.25,14.29-7.89,29.91-7.51,19.14.46,43.73,11,49.64,21.28,3.82,6.64,4.83,12.26,3,16.69-1.46,3.54-4.57,5.98-9.26,7.25-1.56.43-2.96.64-4.19.64Z"/>
    <path class="cls-5" d="M137.04,309.02c-.26,1.68-1.86,2.82-3.53,2.49-14.94-2.88-27.52-9.56-42.2-17.9-22.56-12.83-33.79-29.29-30.8-45.16,1.86-9.85,7.6-18.26,16.16-23.69,8.49-5.38,18.96-7.37,27.32-5.18,7.2,1.88,18.92,8.92,31.33,16.38,9.09,5.47,18.5,11.12,24.55,13.6,13.76,5.65,49.34,10.36,63.83,2.2,11.6-6.54,37.23-24.03,31.84-48.48-.34-1.55.51-3.1,2.03-3.57h0c1.65-.51,3.43.47,3.8,2.16,4.5,20.13-7.98,40.06-34.72,55.13-16.87,9.51-54.3,4.19-69.06-1.88-6.47-2.66-15.65-8.17-25.36-14.01-11.5-6.91-23.39-14.06-29.75-15.72-6.7-1.75-15.57,0-22.6,4.45-5.05,3.2-11.5,9.22-13.47,19.73-2.49,13.2,7.67,27.36,27.87,38.84,14.19,8.06,26.31,14.52,40.39,17.23,1.57.3,2.62,1.81,2.38,3.39h0Z"/>
    <path class="cls-5" d="M166.69,235.61l-2.22-1.12c-1.33-.67-1.94-2.21-1.49-3.64.81-2.56.95-5.26,1.15-9.14.18-3.53.41-7.93,1.24-13.8,2.09-14.8,13.32-27.96,30.04-35.22,18.28-7.94,34.09-5.42,52.37,8.51,1.35,1.03,1.59,2.97.53,4.28h0c-1.02,1.26-2.86,1.48-4.15.5-16.53-12.6-30.13-14.83-46.36-7.78-14.79,6.42-24.69,17.84-26.49,30.56-.79,5.61-1.01,9.85-1.19,13.27-.27,5.19-.47,9.01-2.43,13.24-.17.38-.64.53-1.01.34Z"/>
    <path class="cls-5" d="M265.22,275.25l-3.77-4.67c5.7-4.6,14.29-17.6,16.18-26.22l.41-1.81c2.06-9.16,5.17-22.99-.37-42.96l-.21-.76c-4.55-16.41-6.83-24.64-28.36-42.39-15.94-13.14-41.9-14.05-67.01-14.93l.21-6c26.11.91,53.1,1.86,70.62,16.3,22.99,18.95,25.6,28.35,30.33,45.42l.21.76c5.94,21.42,2.5,36.74.44,45.88l-.4,1.78c-2.23,10.17-11.65,24.26-18.27,29.6Z"/>
    <path class="cls-5" d="M255.74,156.1c-4.11,0-8.63-2.25-12.43-4.15-.98-.49-1.98-.99-2.85-1.38-1.08-.49-1.69-1.64-1.47-2.81l.17-.91c.31-1.62,2.04-2.51,3.55-1.85,1.01.44,2.1.99,3.27,1.57,3.39,1.69,8.52,4.25,10.9,3.34.17-.06.37-.16.59-.36.74-.67,1.76-.93,2.68-.56l.95.38c1.64.66,2.14,2.77.95,4.07-1.01,1.11-2.12,1.73-3.03,2.07-1.05.4-2.15.57-3.28.57Z"/>
    <path class="cls-5" d="M108.14,160.87c-3.85,0-6.77-1.99-9.93-5.1-1.49-1.47-1.42-3.9.12-5.33h0c.9-.83,2.3-.79,3.15.1,4.12,4.26,5.62,4.72,8.2,4.14,1.97-.44,3.93-1.61,5.93-3.56,1.19-1.15,3.03-1.26,4.3-.2h0c1.29,1.08,1.36,3.03.17,4.22-2.92,2.91-5.92,4.68-9.1,5.4-1.01.23-1.96.33-2.85.33Z"/>
    <path class="cls-5" d="M152.3,161.25c-4.63,0-6.76-2.25-9.4-5.03,0,0-1.13-1.18-1.14-1.18-.84-.89-.41-2.72.46-3.59h0c.92-.93,2.99-1.49,3.89-.54,0,0,.01.01.02.02,2.66,2.79,4.41,4.48,6.45,4.32,2.8-.22,4.92-.9,6.76-3.42.85-1.16,2.45-1.49,3.74-.85l.09.04c1.59.8,2.11,2.84,1.06,4.28-3.42,4.69-7.68,5.66-11.18,5.93-.25.02-.49.03-.73.03Z"/>
    <path class="cls-5" d="M72.45,162.22h0c-.04-1.64,1.25-3.01,2.89-3.06,4.73-.16,10.48-.48,15.11-.99,1.61-.17,3.05.95,3.28,2.55h0c.24,1.68-.95,3.23-2.64,3.41-4.8.52-10.7.85-15.55,1.02-1.67.06-3.06-1.26-3.1-2.93Z"/>
    <path class="cls-5" d="M78.69,174.92h0c-.32-1.57.64-3.1,2.19-3.5,3.86-.99,9.08-2.65,13.01-4.31,1.44-.61,3.1,0,3.82,1.39h0c.81,1.56.11,3.46-1.5,4.14-4.29,1.82-9.76,3.54-13.82,4.59-1.66.43-3.34-.63-3.68-2.31Z"/>
    <path class="cls-5" d="M187.07,165.34c-3.81,0-8.38-.48-12.51-.91-1.84-.19-3.62-.38-5.18-.5-1.38-.11-2.43-1.28-2.38-2.66v-.41c.07-1.71,1.54-3.03,3.25-2.88,1.53.13,3.2.3,4.94.49,3.84.4,8.07.84,11.47.87,1.58.02,2.89,1.24,3.03,2.82l.03.3c.14,1.55-1.08,2.88-2.63,2.88h0Z"/>
    <path class="cls-5" d="M181.22,174.26c-.06,1.6-1.52,2.81-3.09,2.52-2.99-.55-5.62-1.69-8.56-2.95-1.12-.49-2.27-.98-3.52-1.48-1.33-.53-1.99-2.03-1.51-3.37l.23-.64c.51-1.42,2.11-2.12,3.5-1.56s2.55,1.06,3.67,1.54c2.72,1.18,4.87,2.1,7.15,2.54,1.29.25,2.2,1.4,2.15,2.71l-.03.69Z"/>
    <path class="cls-5" d="M131.06,174.07c-2.36,0-4.88-.61-6.57-1.82-1.94-1.38-3.05-3.73-3.05-6.45,0-4.46,5.49-4.52,8.45-4.55h.45c.62-.02,6.11-.03,8.32,2.18.85.85,1.02,1.77,1.01,2.4-.03,2.37-1.13,4.6-3.25,6.64-1.12,1.07-3.17,1.6-5.36,1.6ZM125.81,166.03c.05,1.19.49,2.16,1.22,2.68,1.88,1.34,5.67,1.14,6.42.59,1.02-.99,1.64-1.99,1.83-2.97-.88-.39-2.94-.75-4.86-.73h-.47c-1.03.02-3.34.04-4.13.42Z"/>
    <path class="cls-5" d="M122.59,182.84c-1.32,0-2.62-.34-3.85-1.02-1.69-.92-1.97-3.23-.56-4.54l.3-.27c.85-.79,2.12-.99,3.15-.45.38.2.78.31,1.17.27.53-.06,1.79-.5,3.56-2.98.83-1.17,2.41-1.53,3.67-.82l.34.19c1.44.81,1.89,2.71.93,4.06-2.37,3.36-4.92,5.16-7.79,5.51-.3.04-.6.05-.9.05Z"/>
    <path class="cls-5" d="M139.1,183.22c-.56,0-1.13-.05-1.7-.15-3.19-.58-5.87-2.7-7.56-5.85-.86-1.6.03-3.59,1.78-4.07l.27-.07c1.28-.35,2.63.22,3.26,1.38.82,1.51,1.98,2.47,3.33,2.71.54.1,1.02.07,1.42-.04.88-.24,1.81-.14,2.54.4l.29.21c1.89,1.38,1.4,4.31-.82,5.04-.89.29-1.83.44-2.8.44Z"/>
  </g>
</svg>