<svg width="58" height="54" viewBox="0 0 58 54" fill="none" xmlns="http://www.w3.org/2000/svg">
<path d="M21.6026 44.4418L21.4379 43.2322L20.2868 42.8257C19.7742 42.6447 19.299 42.4303 18.8588 42.1843C18.3612 41.9063 17.8742 41.6083 17.3978 41.2902L16.5352 40.7142L15.5674 41.0875L8.66102 43.7515L2.75592 34.3878L8.49164 30.4003L9.51852 29.6864L9.32622 28.4506C9.29337 28.2395 9.27907 28.0496 9.27907 27.8791V26.1209C9.27907 25.9504 9.29337 25.7605 9.32622 25.5494L9.51852 24.3136L8.49164 23.5997L2.75592 19.6122L8.66102 10.2485L15.5674 12.9125L16.5352 13.2858L17.3978 12.7099C17.8626 12.3995 18.3507 12.1071 18.8628 11.8329C19.3603 11.5664 19.8512 11.3416 20.3355 11.1564L21.4427 10.7328L21.6026 9.55821L22.502 2.95349H34.6143L35.5136 9.55821L35.6783 10.7678L36.8295 11.1743C37.3421 11.3553 37.8173 11.5697 38.2575 11.8157C38.7551 12.0937 39.2421 12.3917 39.7185 12.7099L40.5811 13.2858L41.5488 12.9125L48.4553 10.2485L54.3604 19.6122L48.6246 23.5997L47.5978 24.3136L47.7901 25.5494C47.8229 25.7605 47.8372 25.9505 47.8372 26.1209V27.8791C47.8372 27.9358 47.8279 28.0281 47.7857 28.1638L47.3501 29.5635L48.5537 30.4003L54.2894 34.3878L48.3869 43.7475L41.5541 41.0896L40.5841 40.7122L39.7185 41.2902C39.2537 41.6005 38.7656 41.8929 38.2535 42.1671C37.756 42.4336 37.2651 42.6584 36.7808 42.8436L35.6736 43.2672L35.5136 44.4418L34.6143 51.0465H22.502L21.6026 44.4418ZM23.7385 48.102L23.9703 49.8372H25.7209H31.3244H33.0573L33.304 48.122L34.1104 42.5169C35.2425 42.1646 36.3206 41.7152 37.3421 41.1667C38.3694 40.6151 39.3344 39.9774 40.2356 39.2544L46.1474 41.502L47.6836 42.0861L48.5543 40.6922L51.3206 36.2643L52.3304 34.648L50.7646 33.5615L45.8536 30.1539C45.9131 29.8826 45.9624 29.6077 46.0015 29.3295C46.1093 28.5624 46.1628 27.7856 46.1628 27C46.1628 26.2144 46.1093 25.4376 46.0015 24.6705C45.9624 24.3923 45.9131 24.1175 45.8536 23.8461L50.7646 20.4385L52.3304 19.3521L51.3206 17.7357L48.5543 13.3078L47.6764 11.9024L46.1323 12.5038L40.252 14.794C39.3478 14.0434 38.3774 13.3893 37.3421 12.8333C36.3249 12.2871 35.2514 11.8392 34.1244 11.4875L33.3777 5.89796L33.1459 4.16279H31.3954H25.7919H24.059L23.8122 5.87799L23.0059 11.4831C21.8738 11.8354 20.7956 12.2848 19.7742 12.8333C18.7469 13.3849 17.7819 14.0226 16.8807 14.7456L10.9689 12.498L9.43272 11.914L8.56195 13.3078L5.79567 17.7357L4.77851 19.3638L6.36365 20.4468L11.2686 23.7977C11.2074 24.0736 11.1565 24.3506 11.1161 24.6288C11.0062 25.3858 10.9535 26.1772 10.9535 27C10.9535 27.7855 11.007 28.5546 11.1161 29.3061C11.1571 29.588 11.2088 29.8687 11.271 30.1482L6.35172 33.5615L4.78586 34.648L5.79567 36.2643L8.56195 40.6922L9.43991 42.0976L10.984 41.4962L16.8643 39.206C17.7685 39.9566 18.7389 40.6108 19.7742 41.1667C20.7914 41.7129 21.8649 42.1609 22.9918 42.5126L23.7385 48.102ZM34.3696 31.9732C32.8165 33.3989 30.965 34.1163 28.7 34.1163C26.3781 34.1163 24.5228 33.393 23.004 31.9815C21.4784 30.5637 20.7698 28.9383 20.7698 27C20.7698 25.0617 21.4784 23.4364 23.004 22.0185C24.5228 20.607 26.3781 19.8837 28.7 19.8837C30.965 19.8837 32.8165 20.6011 34.3696 22.0268C35.9168 23.4472 36.6302 25.0703 36.6302 27C36.6302 28.9297 35.9168 30.5528 34.3696 31.9732Z" stroke="#343a40" stroke-width="4"/>
</svg>
